<svg width="32" height="32" viewBox="0 0 32 32" fill="none" xmlns="http://www.w3.org/2000/svg">
<path d="M16 2.66666C8.63999 2.66666 2.66666 8.64 2.66666 16C2.66666 23.36 8.63999 29.3333 16 29.3333C23.36 29.3333 29.3333 23.36 29.3333 16C29.3333 8.64 23.36 2.66666 16 2.66666ZM16 5.33333C21.44 5.33333 25.9333 9.4 26.5867 14.6667H21.1733C20.5733 12.36 18.48 10.6667 16 10.6667C13.52 10.6667 11.4267 12.36 10.84 14.6667H5.41332C6.06666 9.4 10.56 5.33333 16 5.33333ZM18.6667 16C18.6667 17.4667 17.4667 18.6667 16 18.6667C14.5333 18.6667 13.3333 17.4667 13.3333 16C13.3333 14.5333 14.5333 13.3333 16 13.3333C17.4667 13.3333 18.6667 14.5333 18.6667 16ZM16 26.6667C10.56 26.6667 6.06666 22.6 5.41332 17.3333H10.8267C11.4133 19.64 13.5067 21.3333 15.9867 21.3333C18.4667 21.3333 20.56 19.64 21.1467 17.3333H26.56C25.9333 22.6 21.44 26.6667 16 26.6667Z" fill="#030303"/>
</svg>
